PathFileType	4	(X/Y/Z)	C:/Users/beibeiliu/ov580/test_trc/User2\sequence.18_training_dense_right.trc
DataRate	CameraRate	NumFrames	NumMarkers	Units	OrigDataRate	OrigDataStartFrame	OrigNumFrames
120	120	16	19	mm	120	215	429
Frame#	Time	ThumbCMC			ThumbMCP			ThumbIP			ThumbTip			IndexMCP			IndexPIP			IndexTip			MiddleMCP			MiddlePIP			MiddleTip			RingMCP			RingPIP			RingTip			PinkyMCP			PinkyPIP			PinkyTip			BackHand1			BackHand2			BackHand3	
		X0	Y0	Z0	X1	Y1	Z1	X2	Y2	Z2	X3	Y3	Z3	X4	Y4	Z4	X5	Y5	Z5	X6	Y6	Z6	X7	Y7	Z7	X8	Y8	Z8	X9	Y9	Z9	X10	Y10	Z10	X11	Y11	Z11	X12	Y12	Z12	X13	Y13	Z13	X14	Y14	Z14	X15	Y15	Z15	X16	Y16	Z16	X17	Y17	Z17	X18	Y18	Z18	
214	1.78333	14.6652	-5.79205	62.2965	-3.73144	6.80395	39.3	-20.1195	27.3241	9.77244	-23.072	35.1809	-14.2592	9.87067	49.115	-3.66559	-1.47499	33.4755	-28.7444	-3.41417	1.78793	-9.28184	25.9767	43.5918	-19.4231	14.1147	18.3841	-40.287	16.384	-6.20597	-5.65747	40.8619	30.6474	-30.4365	26.0271	4.30457	-40.6786	31.5691	-10.5532	-8.52042	62.7439	16.0233	-30.68	38.2918	-5.43909	-39.0915	40.6244	-18.329	-10.4812	75.66	20.8994	25.8354	86.8134	1.71036	53.1916	50.724	16.5559	58.0579	
215	1.79167	15.3694	-5.3443	58.5795	-4.35494	8.61569	34.5813	-18.2104	22.9934	8.0884	-21.8305	32.8434	-17.9304	13.3485	45.1996	-10.4087	-1.4935	27.2066	-32.8162	-1.26813	-1.88046	-11.5629	25.5819	39.6342	-24.4862	13.283	13.7052	-42.2762	19.591	-10.5001	-7.00274	45.4617	23.4175	-34.5124	25.5525	-1.14687	-40.5512	30.2458	-12.8924	-9.76313	61.4149	11.8165	-32.6849	41.2241	-11.9786	-42.6842	40.083	-24.9088	-13.2761	74.7804	16.6746	26.238	84.3949	-1.18946	52.8343	48.2246	18.9203	56.1908	
216	1.8	13.8072	-4.34953	56.3631	-2.99441	6.0217	30.7915	-14.4915	21.2795	-0.162948	-17.6673	30.197	-25.5647	14.9602	41.8013	-14.3146	2.52438	22.5358	-37.1589	2.86769	-6.94704	-14.477	31.131	34.5291	-26.2506	16.6356	3.84201	-43.767	16.6892	-13.3681	-9.5826	45.2848	18.2394	-38.3531	30.7545	-6.83483	-44.9383	33.8149	-15.7517	-7.51242	64.1345	3.85054	-34.8391	40.4977	-17.76	-39.7598	46.0836	-29.4495	-8.81567	75.1849	16.4774	21.9277	86.4847	-1.46619	48.7147	51.6578	14.1213	52.5902	
217	1.80833	16.1077	-4.38291	52.3557	-3.76964	6.52992	27.0388	-13.8567	20.776	-7.10343	-12.3997	22.4793	-31.1641	18.0934	38.6146	-21.5758	4.69903	15.6737	-42.7548	4.85432	-10.6874	-16.2778	36.8729	26.4186	-37.0999	22.2246	-2.87162	-48.6523	23.3482	-17.9111	-9.47906	50.3253	9.44429	-42.7066	35.9026	-17.8587	-45.5457	35.6441	-21.7939	-9.24805	68.9346	-4.6733	-37.5098	46.209	-27.3561	-41.6926	44.1911	-32.6164	-9.97233	79.1445	9.31239	19.1285	87.3535	-2.23888	46.8366	52.3343	15.7588	46.8695	
218	1.81667	18.5401	-2.58996	48.3113	-0.256269	6.62384	19.5544	-9.95616	17.2281	-14.8626	-9.70682	18.6907	-39.8565	23.3918	31.3016	-29.5084	10.0407	6.69912	-47.5449	10.8568	-16.6191	-17.825	40.4991	20.3572	-41.3012	26.7819	-12.9678	-51.6684	26.5446	-23.6778	-11.2287	54.9186	-0.410885	-46.5137	41.2707	-26.3719	-49.2773	40.0461	-28.6827	-11.4496	71.3323	-11.3864	-37.7026	51.4493	-37.7663	-42.6708	48.4276	-35.3379	-6.36971	82.7426	8.86606	18.3023	87.0168	-2.06521	48.4963	56.517	16.4313	41.29	
219	1.825	20.5346	-4.47231	43.7069	-0.661657	3.60981	14.769	-6.55306	10.2999	-21.3389	-5.41993	7.91113	-46.7382	30.3163	20.3184	-35.9582	16.9416	-6.10447	-51.3513	13.9907	-22.7615	-21.386	45.4346	9.04154	-48.4781	30.6827	-22.1127	-54.4892	28.2937	-30.6488	-14.7125	61.1338	-12.4814	-49.6521	42.5983	-35.8533	-47.5317	41.6296	-34.1269	-10.2079	72.9487	-22.832	-41.4742	52.5195	-45.2652	-40.1749	51.3617	-44.1349	-6.92157	85.0006	3.33366	12.4229	87.3677	-4.27722	45.0828	55.2288	13.526	39.0083	
220	1.83333	19.623	-1.63749	40.652	4.33427	0.490523	8.46409	-5.79074	1.63801	-25.701	-0.901105	-2.07234	-53.497	28.504	12.2468	-44.2881	15.3288	-16.9885	-52.5038	13.4138	-26.3424	-18.1243	49.114	-3.58037	-52.7994	28.6937	-34.5423	-51.9446	32.73	-37.1411	-13.3419	63.137	-20.2532	-47.9224	44.8923	-48.1898	-45.4464	43.3579	-40.2176	-9.61977	74.2158	-34.2521	-39.7169	52.5852	-59.7386	-33.328	50.6175	-49.6548	-3.88905	88.268	-2.69563	8.11903	88.3903	-7.61676	44.5648	57.6504	13.4966	28.2855	
221	1.84167	21.0816	-2.86915	36.3146	1.86257	-3.52923	8.01156	-3.56059	-6.28391	-25.4237	0.56593	-12.277	-54.9885	32.5859	1.92505	-47.6331	20.1014	-24.7718	-54.4395	14.5617	-31.0042	-18.0543	50.8866	-12.4568	-51.5214	28.103	-42.893	-49.7022	31.5171	-41.7327	-11.3082	64.6029	-31.1294	-46.8068	44.7465	-57.4142	-40.2129	42.8194	-45.1926	-7.58808	79.4815	-45.6931	-38.3876	53.8151	-64.3701	-31.4588	54.8281	-58.782	0.49044	88.872	-4.71899	8.71135	88.5587	-7.33832	43.2005	60.2891	12.2482	28.4902	
222	1.85	21.4076	-4.96039	34.0438	4.17781	-8.32511	9.07412	-4.69069	-11.7853	-29.7314	-2.79684	-22.1805	-52.682	30.6385	-6.1264	-48.2859	19.7498	-35.0771	-50.7565	16.5725	-35.8944	-17.0893	48.9219	-19.0853	-50.8521	28.4667	-51.5096	-47.163	29.1492	-47.7896	-9.45912	60.6232	-40.6732	-47.8132	44.6898	-63.654	-37.0795	45.8114	-48.7136	-1.93373	75.5832	-54.3518	-37.7054	51.9862	-71.518	-23.1265	51.4071	-59.0844	3.59698	90.3281	-9.06108	5.94861	89.7622	-8.08871	38.2394	57.1696	10.4605	23.5112	
223	1.85833	22.8734	-7.86827	35.2665	2.16632	-11.474	5.94721	-5.81649	-20.9298	-22.2522	-3.08284	-32.4062	-53.7411	26.763	-11.4225	-46.0778	11.678	-39.8161	-48.5747	17.4047	-37.5943	-10.9965	43.3454	-29.0638	-51.1404	27.3374	-60.1549	-40.3362	28.438	-52.1178	-4.66747	58.0506	-50.6729	-45.2578	39.1397	-68.9067	-29.4949	43.8337	-51.811	3.52977	74.5289	-56.2973	-30.6233	48.173	-75.3113	-15.511	54.6576	-59.4557	12.7792	86.059	-9.8814	5.06269	89.9672	-6.59449	37.5831	58.0725	9.78884	25.3874	
224	1.86667	19.3314	-4.3832	38.487	1.06264	-14.3357	10.4912	-10.284	-26.2805	-18.3094	-11.085	-40.9171	-43.2954	21.9604	-19.4202	-43.4683	7.45123	-45.9113	-40.3336	11.7802	-37.9239	-4.05711	37.345	-35.582	-46.582	21.2699	-67.1504	-31.4831	22.2191	-53.2825	4.49795	54.2269	-55.0271	-36.7956	32.7254	-75.6082	-19.3079	37.2949	-51.947	9.06081	64.763	-66.2082	-25.7594	40.6669	-78.1337	-6.06012	46.5634	-60.6921	19.0068	83.9687	-17.0288	1.98092	88.422	-11.5331	37.058	58.7878	7.35862	23.9402	
225	1.875	18.8864	-0.083591	39.969	-4.52184	-11.2492	18.9708	-17.3873	-25.6007	-11.6309	-18.8271	-43.3735	-33.31	17.138	-23.2763	-38.6673	-4.4907	-46.9179	-29.7481	8.43109	-38.0785	2.35852	28.9115	-42.78	-39.5717	7.23187	-65.2888	-22.1773	14.4461	-52.1545	12.7385	40.5441	-64.4114	-29.7888	20.725	-73.8253	-10.4363	32.253	-54.9356	18.8962	51.0673	-70.8051	-17.8825	33.2373	-81.9107	7.67899	41.5106	-54.8256	29.5057	76.3182	-20.8708	3.14898	89.2738	-14.4535	36.7474	57.8013	8.30397	24.6928	
226	1.88333	21.7494	6.72429	46.3416	-8.49907	-3.43185	21.7762	-25.7761	-18.7502	-0.245255	-29.6196	-39.9766	-23.085	7.34435	-19.2305	-30.0717	-11.2368	-44.7069	-19.3882	1.39943	-32.8806	11.1213	18.3281	-47.3016	-30.7088	-5.55017	-61.2986	-8.60022	8.9331	-44.0945	23.5177	25.4387	-64.6098	-19.2659	9.08364	-72.2897	2.17896	21.3763	-48.1748	25.957	42.1227	-72.1509	-6.45068	18.8614	-74.6242	17.5342	29.6505	-51.8555	37.6424	75.023	-25.7632	4.30161	85.0132	-12.257	39.3303	55.7496	8.23539	23.6919	
227	1.89167	23.2639	14.3928	47.2907	-10.0112	6.37492	28.3129	-27.6414	-12.0676	4.21529	-32.9157	-31.6886	-10.5293	1.8148	-20.5657	-26.9138	-18.3925	-36.7267	-8.8452	-1.32896	-21.8989	16.4102	11.2087	-43.2743	-25.5004	-13.0666	-54.4128	-2.10509	3.30622	-37.042	29.0675	16.8481	-60.5432	-13.1486	-1.33008	-64.1078	10.0099	19.7724	-41.0194	33.169	30.4956	-69.9783	-0.556592	9.82305	-67.919	26.0206	26.9472	-47.4748	42.9596	69.7361	-25.284	7.90252	84.8518	-11.044	39.9906	59.7064	9.7359	25.3752	
228	1.9	20.3474	23.809	43.9376	-9.00281	16.1837	30.016	-27.5623	-3.15557	5.67876	-34.7995	-25.0768	-10.7829	1.48127	-12.0957	-23.6022	-21.6605	-28.015	-10.512	-3.05323	-9.94454	19.5746	10.8393	-35.3718	-22.4372	-15.9394	-47.1127	-0.934536	-1.42017	-26.9532	31.4416	15.2816	-51.1791	-11.5017	-4.31054	-58.3557	14.7144	15.9624	-33.626	34.655	28.4522	-67.3429	2.2437	4.95578	-65.1149	24.3304	19.9012	-39.6857	43.3929	68.661	-20.519	10.8805	83.4866	-8.57963	39.2533	56.6625	16.5577	21.7879	
229	1.90833	24.1093	29.5274	47.3578	-5.24479	22.6128	32.441	-28.3804	8.41147	7.17821	-36.8216	-12.9498	-8.17247	1.17958	-3.34413	-24.529	-22.4122	-18.4699	-10.0401	0.694342	-3.94092	19.6188	7.35035	-23.0634	-22.8729	-18.8674	-38.1822	2.20782	-0.965681	-18.7843	31.1926	8.67319	-45.4634	-12.3799	-8.40418	-48.8918	14.0356	10.9936	-30.9646	34.958	20.7275	-61.251	1.35465	0.96371	-52.5744	25.3036	19.9529	-34.3928	43.4811	66.6384	-20.7678	8.68141	84.6175	-6.39706	41.7029	59.8687	20.508	23.9128	
